<svg version="1" xmlns="http://www.w3.org/2000/svg" width="788" height="788" viewBox="0 0 591.000000 591.000000"><path d="M82.7 3.6c-37.3 6.7-67.2 34-77.9 71l-2.3 7.9v430l2.8 8.8c6.6 21.1 18.4 38.3 35 50.8 9.7 7.4 23.5 14.2 34.3 16.9 7.6 2 11.5 2 222.9 2h215.3l8.3-2.4c16.8-4.9 28.8-11.8 41.2-23.6 12.2-11.5 21-25.7 26.1-41.8l2.6-8.3V386h-69.5l-10-10-10-10 9.5-9.5 9.5-9.5H591v-39.5l-15.8 15.8-15.7 15.7h-13.2c-7.2 0-13.8-.3-14.7-.6-1.4-.5-1.6-2.8-1.6-14.8v-14.1l30.5-30.5 30.5-30.5v-84c0-95.4.5-89.6-8.5-108-13.8-28.2-42.9-49.3-73.8-53.4-5.3-.8-73.7-1.1-213-1-171.5.1-206.5.3-213 1.5zm105.9 197.6c-1.3 3.5-4.5 12.3-7.2 19.5l-4.9 13.3H47.1L29 227.3c-10-3.6-18.4-7.3-18.7-8-.9-2.2 2.5-9.7 6.2-14.1 2-2.2 6.3-5.4 9.7-7.1l6.1-3.1H191l-2.4 6.2zm214.4-4.9c0 .6-3.1 9.3-6.8 19.2l-6.9 18-57.4.3-57.4.3-18.3-6.7c-10.1-3.7-18.6-7.4-18.9-8.1-.9-2.2 2.5-9.7 6.2-14.1 2-2.2 6.3-5.4 9.7-7.1l6.1-3.1h71.9c56.9 0 71.8.3 71.8 1.3zm16.6 1.6c7.2 3.4 12.6 9.3 15.4 16.8 1.9 5.2 2 7.7 2 71.4v66l-4.6 4.9c-2.6 2.8-5.2 5-5.8 5-.6 0-7.5-6.4-15.3-14.2L397 333.5V284l-.1-49.5 7.3-19.7c4-10.9 7.8-19.8 8.3-19.8.6 0 3.7 1.3 7.1 2.9zm95.5 16l6.9 18.4v101.2L507.5 348 493 362.4l-5-4.9-5-4.9v-66.7c0-72.5-.1-70.7 5.7-78.8 1.4-2 4.4-5 6.4-6.5 3.9-2.7 10.7-5.6 12.3-5.2.4.1 3.9 8.4 7.7 18.5zM48 287.9v45.6L33.5 348 19 362.4l-5-4.9-5-4.9V291c0-33.9.2-61.9.5-62.2.3-.3 9.1 2.7 19.5 6.5l19 7v45.6zm227 0v45.6L260.5 348 246 362.4l-5-4.9-5-4.9V291c0-33.9.2-61.9.5-62.2.3-.3 9.1 2.7 19.5 6.5l19 7v45.6zm-93.8 68.8l9.8 9.8-9.7 9.7-9.8 9.8h-124l-10-10-10-10 9.5-9.5 9.5-9.5h125l9.7 9.7zm227 0l9.8 9.8-9.7 9.7-9.8 9.8h-124l-10-10-10-10 9.5-9.5 9.5-9.5h125l9.7 9.7zM48 449l.1 50.5-6.8 18.4c-3.7 10.1-7.4 18.6-8.1 18.8-2.1.9-9.6-2.5-14.2-6.4-2.6-2.2-5.4-6.1-7.1-9.7L9 514.5V380.6l5.2-5.3 5.3-5.3 14.2 14.2L48 398.5V449zm227 0l.1 50.5-6.8 18.4c-3.7 10.1-7.4 18.6-8.1 18.8-2.1.9-9.6-2.5-14.2-6.4-2.6-2.2-5.4-6.1-7.1-9.7l-2.9-6.1V380.6l5.2-5.3 5.3-5.3 14.2 14.2 14.3 14.3V449zm161.8-1l-.3 67.5-2.5 4.8c-1.3 2.7-4 6.4-5.9 8.4-3.4 3.5-12.1 8.3-15.1 8.3-1.1 0-3.7-5.9-8.8-19.3l-7.2-19.4v-98.8l14.7-14.7 14.8-14.8 5.2 5.2 5.3 5.3-.2 67.5zm85.2 1l.1 50.5-6.8 18.4c-3.7 10.1-7.4 18.6-8.1 18.8-2.1.9-9.6-2.5-14.2-6.4-2.6-2.2-5.4-6.1-7.1-9.7l-2.9-6.1V380.6l5.2-5.3 5.3-5.3 14.2 14.2 14.3 14.3V449z"/></svg>