<?xml version="1.0" standalone="no"?>
<!DOCTYPE svg PUBLIC "-//W3C//DTD SVG 20010904//EN"
 "http://www.w3.org/TR/2001/REC-SVG-20010904/DTD/svg10.dtd">
<svg version="1.0" xmlns="http://www.w3.org/2000/svg"
 width="591.000000pt" height="591.000000pt" viewBox="0 0 591.000000 591.000000"
 preserveAspectRatio="xMidYMid meet">
<metadata>
Created by potrace 1.11, written by Peter Selinger 2001-2013
</metadata>
<g transform="translate(0.000000,591.000000) scale(0.100000,-0.100000)"
fill="#000000" stroke="none">
<path d="M790 5870 c-363 -77 -646 -349 -748 -716 l-27 -99 -3 -2065 c-2
-1451 0 -2090 8 -2149 51 -387 336 -717 710 -820 74 -21 86 -21 2247 -21
l2172 0 83 26 c307 97 538 319 649 624 l24 65 3 673 3 672 -353 0 -353 0 -88
88 c-48 48 -87 92 -87 97 0 6 42 52 93 103 l92 92 348 0 347 0 0 196 0 197
-155 -152 -155 -151 -145 0 -145 0 0 143 0 142 300 300 300 300 0 856 c0 829
-1 859 -20 922 -89 289 -321 537 -595 636 -180 65 -23 61 -2327 60 -1984 0
-2097 -1 -2178 -19z m1110 -1924 c0 -1 -31 -86 -69 -187 l-69 -184 -641 -3
-640 -2 -191 71 c-104 39 -190 77 -190 83 0 6 11 34 24 61 29 61 86 117 146
144 44 20 62 21 838 21 435 0 792 -2 792 -4z m2101 -73 c-16 -43 -48 -129 -71
-190 l-42 -113 -569 0 -569 0 -190 71 c-104 39 -190 77 -190 83 0 6 11 34 24
61 29 61 86 117 146 144 44 20 63 21 767 21 l722 0 -28 -77z m193 56 c60 -28
114 -82 142 -143 l24 -51 0 -675 0 -674 -47 -48 -47 -48 -143 142 -143 143 0
504 0 504 66 176 c36 96 68 179 70 183 8 13 32 9 78 -13z m910 -46 c14 -38 46
-122 71 -188 l45 -120 0 -500 0 -500 -142 -142 -143 -143 -52 52 -53 52 0 658
c0 646 0 658 21 714 25 67 89 136 152 164 66 31 72 28 101 -47z m-4809 -332
l180 -68 3 -454 2 -454 -142 -142 -143 -143 -52 52 -53 52 0 613 c0 484 3 613
13 613 6 -1 93 -32 192 -69z m2270 0 l180 -68 3 -454 2 -454 -142 -142 -143
-143 -52 52 -53 52 0 613 c0 484 3 613 13 613 6 -1 93 -32 192 -69z m-755
-1206 l95 -95 -95 -95 -95 -95 -625 0 -625 0 -87 87 c-49 48 -88 92 -88 98 0
5 42 51 92 102 l93 93 620 0 620 0 95 -95z m2270 0 l95 -95 -95 -95 -95 -95
-625 0 -625 0 -87 87 c-49 48 -88 92 -88 98 0 5 42 51 92 102 l93 93 620 0
620 0 95 -95z m-3743 -287 l143 -143 0 -497 0 -498 -71 -190 c-71 -188 -72
-190 -98 -183 -71 17 -149 82 -189 157 l-27 51 -3 674 -3 675 48 48 c26 26 50
48 52 48 3 0 70 -64 148 -142z m2270 0 l143 -143 0 -497 0 -498 -71 -190 c-71
-188 -72 -190 -98 -183 -71 17 -149 82 -189 157 l-27 51 -3 674 -3 675 48 48
c26 26 50 48 52 48 3 0 70 -64 148 -142z m1711 99 l42 -43 -2 -685 -3 -684
-25 -48 c-13 -27 -40 -63 -59 -79 -43 -38 -140 -84 -151 -72 -4 5 -37 89 -74
187 l-66 177 0 508 0 507 137 137 c76 76 142 138 148 138 6 0 30 -19 53 -43z
m759 -99 l143 -143 0 -497 0 -498 -71 -190 c-71 -188 -72 -190 -98 -183 -71
17 -149 82 -189 157 l-27 51 -3 674 -3 675 48 48 c26 26 50 48 52 48 3 0 70
-64 148 -142z"/>
</g>
</svg>
